REM DIRINDEX 1\2\4,1\2\5,1\3\6,1\3\7,1\3\8
REM DIRNAME folder01,folder02,folder03,folder04,folder05,folder06,folder07,folder08
TITLE ""
FILE "LV4_066_WORDS.mp3" MP3
  TRACK 01 AUDIO
    TITLE "0:"
    INDEX 01 00:00:00
  TRACK 02 AUDIO
    TITLE "6:cjc094_2327"
    INDEX 01 00:00:05
  TRACK 03 AUDIO
    TITLE "0:"
    INDEX 01 00:02:36
  TRACK 04 AUDIO
    TITLE "7:cjc094_2328"
    INDEX 01 00:03:19
  TRACK 05 AUDIO
    TITLE "0:"
    INDEX 01 00:04:33
  TRACK 06 AUDIO
    TITLE "8:cjc094_2329"
    INDEX 01 00:04:46
  TRACK 07 AUDIO
    TITLE "0:"
    INDEX 01 00:07:52
  TRACK 08 AUDIO
    TITLE "7:cjc094_2330"
    INDEX 01 00:08:24
  TRACK 09 AUDIO
    TITLE "0:"
    INDEX 01 00:09:40
  TRACK 10 AUDIO
    TITLE "8:cjc094_2331"
    INDEX 01 00:09:53
  TRACK 11 AUDIO
    TITLE "0:"
    INDEX 01 00:11:72
  TRACK 12 AUDIO
    TITLE "7:cjc094_2332"
    INDEX 01 00:12:50
  TRACK 13 AUDIO
    TITLE "0:"
    INDEX 01 00:13:61
  TRACK 14 AUDIO
    TITLE "8:cjc094_2333"
    INDEX 01 00:14:04
  TRACK 15 AUDIO
    TITLE "0:"
    INDEX 01 00:16:34
  TRACK 16 AUDIO
    TITLE "7:cjc094_2334"
    INDEX 01 00:17:10
  TRACK 17 AUDIO
    TITLE "0:"
    INDEX 01 00:18:09
  TRACK 18 AUDIO
    TITLE "8:cjc094_2335"
    INDEX 01 00:18:19
  TRACK 19 AUDIO
    TITLE "0:"
    INDEX 01 00:20:32
  TRACK 20 AUDIO
    TITLE "7:cjc094_2336"
    INDEX 01 00:21:04
  TRACK 21 AUDIO
    TITLE "0:"
    INDEX 01 00:22:03
  TRACK 22 AUDIO
    TITLE "8:cjc094_2337"
    INDEX 01 00:22:15
  TRACK 23 AUDIO
    TITLE "0:"
    INDEX 01 00:23:16
  TRACK 24 AUDIO
    TITLE "7:cjc094_2338"
    INDEX 01 00:23:69
  TRACK 25 AUDIO
    TITLE "0:"
    INDEX 01 00:25:01
  TRACK 26 AUDIO
    TITLE "8:cjc094_2339"
    INDEX 01 00:25:13
  TRACK 27 AUDIO
    TITLE "0:"
    INDEX 01 00:26:15
  TRACK 28 AUDIO
    TITLE "7:cjc094_2340"
    INDEX 01 00:26:58
  TRACK 29 AUDIO
    TITLE "0:"
    INDEX 01 00:27:49
  TRACK 30 AUDIO
    TITLE "8:cjc094_2341"
    INDEX 01 00:27:59
  TRACK 31 AUDIO
    TITLE "0:"
    INDEX 01 00:28:55
  TRACK 32 AUDIO
    TITLE "7:cjc094_2342"
    INDEX 01 00:29:33
  TRACK 33 AUDIO
    TITLE "0:"
    INDEX 01 00:30:24
  TRACK 34 AUDIO
    TITLE "8:cjc094_2343"
    INDEX 01 00:30:38
  TRACK 35 AUDIO
    TITLE "0:"
    INDEX 01 00:31:37
  TRACK 36 AUDIO
    TITLE "7:cjc094_2344"
    INDEX 01 00:32:15
  TRACK 37 AUDIO
    TITLE "0:"
    INDEX 01 00:33:60
  TRACK 38 AUDIO
    TITLE "8:cjc094_2345"
    INDEX 01 00:34:00
  TRACK 39 AUDIO
    TITLE "0:"
    INDEX 01 00:35:29
  TRACK 40 AUDIO
    TITLE "7:cjc094_2346"
    INDEX 01 00:36:01
  TRACK 41 AUDIO
    TITLE "0:"
    INDEX 01 00:36:74
  TRACK 42 AUDIO
    TITLE "8:cjc094_2347"
    INDEX 01 00:37:16
  TRACK 43 AUDIO
    TITLE "0:"
    INDEX 01 00:40:40
  TRACK 44 AUDIO
    TITLE "7:cjc094_2348"
    INDEX 01 00:41:06
  TRACK 45 AUDIO
    TITLE "0:"
    INDEX 01 00:42:06
  TRACK 46 AUDIO
    TITLE "8:cjc094_2349"
    INDEX 01 00:42:18
  TRACK 47 AUDIO
    TITLE "0:"
    INDEX 01 00:45:57
  TRACK 48 AUDIO
    TITLE "7:cjc094_2350"
    INDEX 01 00:46:19
  TRACK 49 AUDIO
    TITLE "0:"
    INDEX 01 00:47:28
  TRACK 50 AUDIO
    TITLE "8:cjc094_2351"
    INDEX 01 00:47:40
  TRACK 51 AUDIO
    TITLE "0:"
    INDEX 01 00:48:36
  TRACK 52 AUDIO
    TITLE "7:cjc094_2352"
    INDEX 01 00:49:08
  TRACK 53 AUDIO
    TITLE "0:"
    INDEX 01 00:50:19
  TRACK 54 AUDIO
    TITLE "8:cjc094_2353"
    INDEX 01 00:50:39
  TRACK 55 AUDIO
    TITLE "0:"
    INDEX 01 00:51:50
  TRACK 56 AUDIO
    TITLE "7:cjc094_2354"
    INDEX 01 00:52:24
  TRACK 57 AUDIO
    TITLE "0:"
    INDEX 01 00:53:35
  TRACK 58 AUDIO
    TITLE "8:cjc094_2355"
    INDEX 01 00:53:47
  TRACK 59 AUDIO
    TITLE "0:"
    INDEX 01 00:56:57
  TRACK 60 AUDIO
    TITLE "7:cjc094_2356"
    INDEX 01 00:57:33
  TRACK 61 AUDIO
    TITLE "0:"
    INDEX 01 00:58:42
  TRACK 62 AUDIO
    TITLE "8:cjc094_2357"
    INDEX 01 00:58:56
  TRACK 63 AUDIO
    TITLE "0:"
    INDEX 01 01:00:74
